<?xml version="1.0" encoding="UTF-8" standalone="no"?>
<!-- (c) ammap.com | SVG map of Malaysia - Low -->

<svg
   xmlns:amcharts="http://amcharts.com/ammap"
   xmlns:dc="http://purl.org/dc/elements/1.1/"
   xmlns:cc="http://creativecommons.org/ns#"
   xmlns:rdf="http://www.w3.org/1999/02/22-rdf-syntax-ns#"
   xmlns:svg="http://www.w3.org/2000/svg"
   xmlns="http://www.w3.org/2000/svg"
   xmlns:sodipodi="http://sodipodi.sourceforge.net/DTD/sodipodi-0.dtd"
   xmlns:inkscape="http://www.inkscape.org/namespaces/inkscape"
   version="1.1"
   id="svg4570"
   sodipodi:docname="malaysia.svg"
   width="792.38922"
   height="262.24591"
   inkscape:version="0.92.4 (5da689c313, 2019-01-14)">
  <metadata
     id="metadata4574">
    <rdf:RDF>
      <cc:Work
         rdf:about="">
        <dc:format>image/svg+xml</dc:format>
        <dc:type
           rdf:resource="http://purl.org/dc/dcmitype/StillImage" />
        <dc:title></dc:title>
      </cc:Work>
    </rdf:RDF>
  </metadata>
  <sodipodi:namedview
     pagecolor="#ffffff"
     bordercolor="#666666"
     borderopacity="1"
     objecttolerance="10"
     gridtolerance="10"
     guidetolerance="10"
     inkscape:pageopacity="0"
     inkscape:pageshadow="2"
     inkscape:window-width="1920"
     inkscape:window-height="1017"
     id="namedview4572"
     showgrid="false"
     inkscape:zoom="1.06"
     inkscape:cx="142.99815"
     inkscape:cy="32.93942"
     inkscape:window-x="1912"
     inkscape:window-y="96"
     inkscape:window-maximized="1"
     inkscape:current-layer="svg4570" />
  <defs
     id="defs4549">
    <style
       type="text/css"
       id="style4547">
			.land
			{
				fill: #CCCCCC;
				fill-opacity: 1;
				stroke:white;
				stroke-opacity: 1;
				stroke-width:0.5;
			}
		</style>
    <amcharts:ammap
       projection="mercator"
       leftLongitude="99.639942"
       topLatitude="7.364329"
       rightLongitude="119.268560"
       bottomLatitude="0.853582" />
    <!-- All areas are listed in the line below. You can use this list in your script. -->
    <!--{id:"BN"},{id:"MY-01"},{id:"MY-02"},{id:"MY-03"},{id:"MY-04"},{id:"MY-05"},{id:"MY-06"},{id:"MY-07"},{id:"MY-08"},{id:"MY-09"},{id:"MY-10"},{id:"MY-11"},{id:"MY-12"},{id:"MY-13"},{id:"MY-14"},{id:"MY-15"},{id:"MY-16"}-->
  </defs>
  <g
     id="g4568"
     transform="translate(0.23230134,-0.42553914)">
    <path
       id="BN"
       title="Brunei Darussalam"
       class="land"
       d="m 626.19,99.58 0.73,1.42 0.53,0.15 -0.08,0.45 2.36,1.99 -0.25,1.38 0.97,1.26 -0.12,1.44 0.57,0.82 -0.32,1 1.08,0.89 0.18,1.15 -0.18,1.25 -0.63,0.9 0.02,1.38 0.51,1.88 -0.2,0.69 0.4,1 2.13,1.84 1,1.5 -0.04,0.72 -0.58,0.56 -0.85,0.42 -0.47,-0.12 -0.58,-0.94 -0.81,-0.49 -1.25,0.16 -0.21,-1.07 -0.31,-0.23 -1.57,0.12 -2.1,-0.76 -1.32,0.16 -0.47,-0.33 -0.29,-2.45 0.16,-1.3 -1.32,-4.26 -0.52,-0.85 -0.75,-3.38 0.16,-1.11 -0.39,-1.27 0.54,-1.4 v 0 l -0.45,-0.42 v -0.49 l 0.52,0.13 0.42,0.86 -0.05,-1.45 2.21,-0.87 0.16,-0.45 -0.58,-0.5 -0.2,-0.79 0.76,-0.5 z m -4.01,-5.23 1.3,0.08 -0.94,0.68 -0.22,0.81 -1.08,-0.06 0.1,0.88 0.37,0.4 -1.21,1.48 0.26,1.21 -0.77,0.39 v 0 l -1.24,2.34 -4,0.92 -0.52,0.34 -0.61,1.54 -0.44,0.37 -1.15,0.11 -0.59,0.36 -0.14,1.51 0.88,1.46 0.16,1.01 0.57,7.78 0.72,0.78 1.58,0.46 -0.06,1.97 -1.05,2.1 -1.36,1.54 0.01,0.88 1.42,-0.88 -0.43,1.26 -2.02,2.68 -0.06,0.67 0.88,-0.11 -0.08,0.27 -1.55,1.28 -2.29,2.85 -1.85,1.09 -1.64,0.51 -0.66,-0.16 0.74,-1.03 -0.13,-0.41 -1.32,-0.22 -0.97,-0.61 -1.18,-2.21 -0.63,-0.65 -1.43,-0.16 -1.63,-3.04 -0.49,-2.08 h -0.65 l -0.77,0.76 -1.4,-0.44 -1.13,0.53 -1.3,-0.47 -0.05,-1.31 0.5,-1.76 -0.85,-0.78 0.03,-1.83 -1.79,-3.1 -1.09,-1.41 -1.19,-0.63 -0.48,0.16 -0.95,-1.23 -1.79,-0.62 v 0 l 5.14,-0.48 7.52,-2.6 2.75,-1.52 7.18,-6.07 4.07,-2.64 2.57,-2.13 0.54,0.07 6.74,-2.77 1.07,-0.32 z"
       inkscape:connector-curvature="0"
       style="fill:#cccccc;fill-opacity:1;stroke:#ffffff;stroke-width:0.5;stroke-opacity:1" />
    <path
       id="MY-01"
       title="Johor"
       class="land"
       d="m 152.54,244.29 -0.07,-1.33 0.69,0.45 -0.02,0.59 z m -37.49,-32.36 0.95,-0.22 v 0 l 0.64,-0.37 -0.04,-1.26 -0.49,-0.46 -1.5,-0.53 -0.07,-0.81 0.75,-0.67 v -1.68 l 0.85,-3.61 0.88,-0.76 0.1,-0.62 1.78,-0.69 0.12,-0.54 v 0 l 0.06,-1.07 0.96,-1.15 -0.23,-0.9 0.33,-0.74 -0.19,-1.88 0.41,-1.02 0.79,-0.64 -0.52,-1.23 2.82,-7.87 v 0 l 3.74,1.1 7.03,8.23 7.16,3.11 5.45,-2.11 3.15,-0.6 2.44,1.35 1.4,0.23 1,1.22 4.38,2.21 0.59,0.12 0.35,-0.27 0.53,0.23 0.48,-0.75 -0.64,-1.36 0.02,-0.59 -0.92,0.1 -0.27,-0.22 0.14,-0.95 0.89,-0.24 -0.11,-0.44 -0.39,0.26 -0.21,-0.42 0.85,-0.4 -0.29,-0.26 0.33,-0.52 -0.08,-0.83 -0.27,-0.79 -0.2,0.66 -0.43,-0.03 -0.27,-0.97 0.64,-0.39 0.96,0.21 0.08,-0.36 v 0 l 1.51,0.26 2.76,1.12 0.82,-0.74 0.34,0.45 -0.17,0.92 1.83,1.37 0.71,-0.02 -0.34,0.39 0.28,1.33 0.94,1.34 -1,0.37 -0.13,0.29 0.9,2.18 0.57,0.23 2.32,3.19 0.98,0.25 1.02,1.4 -0.41,0.34 0.07,0.25 1.17,1.86 -0.44,-0.14 -0.48,0.29 0.05,1.48 2.34,3.14 1.12,2.49 2.77,3.96 0.63,1.67 -0.11,0.28 -0.64,-0.66 -0.25,1.11 0.18,1.33 0.93,1.16 0.73,0.01 v -0.38 l 0.44,0.37 -0.13,0.77 1.2,1.7 0.52,1.85 0.81,1.06 -0.22,0.67 1.32,1.68 -0.12,0.82 0.78,0.92 -0.44,0.4 0.02,1.46 1.18,1.66 0.08,0.51 -0.45,0.25 -0.04,0.49 0.86,1.75 -0.74,0.8 0.31,2.29 -0.3,0.25 -0.75,0.23 -0.53,-0.42 -1.63,1.2 -1.05,-0.36 -1.66,0.26 -0.3,-0.53 -1.64,-0.51 1.45,-1.81 -0.72,0.31 -0.5,-0.7 -2.15,-1.56 0.82,-1.09 -0.27,-0.57 0.6,-0.5 h 1.08 l 1.43,-0.99 0.15,-0.51 -1.78,1.28 -0.87,-0.25 -0.7,0.42 -0.47,0.86 -0.47,-1.53 0.04,-1.07 -1.98,-2.15 -0.36,-1.23 -1.15,-0.49 -0.5,0.13 1.41,1.26 0.16,1.31 1.15,0.86 0.67,1.52 -0.45,0.75 0.08,2.53 -0.74,0.65 -1.12,0.24 -2.46,-0.37 -0.61,-0.31 -0.58,-0.95 -2.14,-0.74 -0.87,0.04 -1.4,1.25 -0.97,-0.25 -0.67,-0.85 -0.3,0.07 0.17,0.56 -1.4,0.97 -1.24,1.39 -0.52,1.33 -1.27,1.09 -0.92,0.05 -1.43,-0.39 -0.37,-1.23 0.09,-0.82 -0.38,0.09 0.13,1.86 0.48,0.9 -1.28,1.18 -0.07,1.56 -0.19,0.06 -2.46,-2.24 -2.99,-7.81 -1.07,-1.35 -1.06,-0.76 -5.99,-2.51 -4.52,-3.26 -1.35,-0.66 -1.76,-0.56 -1.7,0.08 -2.21,-2.1 0.39,-0.72 -2.76,-1.7 -2.25,-0.56 -1.59,0.02 -0.98,0.54 -0.75,-0.56 -3.03,-3.86 -2.74,-2.62 -0.28,-1.21 -0.46,-0.56 -2.33,-1.42 v 0 l 0.7,-0.17 v 0 z m 67.7,-31.45 0.38,0.17 0.56,2.15 0.84,1.51 -0.43,0.31 0.07,0.46 0.73,0.53 -0.45,2 -2.18,0.11 -1.53,-1.27 -0.13,-1.4 1.87,-1.83 -0.64,-1.5 0.32,-1.08 z"
       inkscape:connector-curvature="0"
       style="fill:#cccccc;fill-opacity:1;stroke:#ffffff;stroke-width:0.5;stroke-opacity:1" />
    <path
       id="MY-02"
       title="Kedah"
       class="land"
       d="M 7.63,47.01 7.65,47.64 6.99,49.19 6.49,48.11 6.12,48.56 5.9,48.45 6.01,48.06 5.35,47.55 5.13,46.92 l 0.82,-0.79 0.4,-1.35 0.78,-0.3 0.68,-0.68 0.22,0.02 0.04,0.77 -0.63,0.31 0.03,0.68 0.79,-0.73 0.62,0.65 -0.17,0.53 0.33,0.25 -0.43,0.87 -0.13,-0.53 -0.76,0.11 z m 0.25,-10.37 0.71,0.46 0.09,0.98 1.53,0.92 0.26,0.96 0.43,-0.08 -0.41,1.08 0.55,0.69 -0.13,0.82 L 9.69,42.86 9.61,43.28 8.88,43.76 8.39,43.42 8.57,43.24 8.32,42.77 7.04,42.75 5.32,44.46 4.74,44.28 4.4,44.86 3.58,45.27 3.56,44.3 2.94,43.21 3.3,42.58 3.2,41.71 2.88,41.14 2.13,41.37 1.54,40.91 0.48,41.1 0.04,39.83 0.02,38.15 0.36,38.06 1.06,38.52 1.51,38.1 3.7,38.3 3.56,38.82 3.87,39.01 4.2,38.5 5.5,38.71 6.12,38.58 6.96,37.37 7.63,37.3 8.26,37.77 8.03,37.15 7.18,36.99 7.44,36.47 Z m 22.15,-2.34 1.76,0.46 1.18,-0.47 0.46,0.43 0.84,-0.18 0.57,0.98 0.94,0.56 0.86,0.09 0.52,-0.43 0.5,0.51 3.57,1.28 0.85,-0.1 1.01,-0.7 1.09,-1.57 0.32,0.21 0.36,1.83 2.34,0.6 0.52,0.58 -0.06,2.96 0.33,0.39 0.46,-0.41 0.24,0.12 0.08,1.68 -0.57,0.94 0.75,1.82 h 0.56 l 0.48,-0.73 1.04,0.67 1.42,-0.19 1.52,-1.6 1.68,1.45 2.98,-0.3 0.68,0.36 -0.19,0.57 0.86,1.72 -0.76,0.64 -1.29,0.37 -0.69,1.11 1.4,0.53 1.56,1.1 -1.19,1.91 0.39,0.65 -0.24,1.6 0.83,0.84 -1.16,1.35 -0.51,1.37 -0.41,-0.28 -2.02,0.21 0.14,0.46 -0.79,1.12 0.11,1.67 -1,0.88 0.1,0.77 v 0 l -0.17,0.74 -1.16,-0.17 -0.25,0.24 0.06,1.05 0.98,0.86 0.23,0.56 -0.5,2.35 -0.81,0.06 -0.24,0.88 -0.65,0.65 0.03,0.54 0.45,0.53 0.24,1.56 -0.93,1.97 -0.6,0.28 -0.69,-0.17 -0.54,0.63 -0.31,2 -0.49,0.82 0.11,0.66 -0.42,1.85 -1.43,1.21 -2.78,0.29 -0.35,0.78 0.02,0.98 -1.28,0.72 -0.6,0.05 -0.83,1.59 0.23,0.35 -0.28,0.67 -1.49,0.54 -0.65,1.53 -1.09,0.22 -1.08,1.52 -0.69,-0.38 -0.54,0.19 -0.73,-0.29 0.13,-0.85 -0.31,-0.27 -0.41,0.13 -0.17,-0.42 0.35,-0.52 v 0 l 1.71,0.38 0.18,-0.19 -0.98,-9.11 0.11,-7.65 -0.91,-0.39 -1.03,0.39 -1.3,-0.37 -1.14,0.06 -1.18,-0.68 -1.75,0.2 v 0 l -0.34,-0.29 -0.04,-3.07 0.62,-1.11 -0.16,-0.81 0.5,-1.13 0.22,-1.49 -0.85,-8.25 -0.81,-2.68 -1.7,-2.08 -0.48,-2.25 -0.7,-1.52 -1.21,-1.59 -1.18,-0.98 v 0 l 0.55,-1.48 2.92,-3.17 0.9,-1.47 1.77,-1.27 0.71,-0.88 0.26,-3.12 v 0 z"
       inkscape:connector-curvature="0"
       style="fill:#cccccc;fill-opacity:1;stroke:#ffffff;stroke-width:0.5;stroke-opacity:1" />
    <path
       id="MY-03"
       title="Kelantan"
       class="land"
       d="m 99,45.99 2.02,1.37 1.19,0.3 0.12,-0.58 1.79,-0.33 0.37,0.78 0.33,-0.52 4.42,2.1 1.16,1.67 3.02,6.88 1.29,2.17 -0.26,0.25 0.08,0.53 1,0.81 0.37,-0.19 0.99,0.77 v 0 l -2.57,2.94 -3.61,3.32 0.98,5.45 -0.65,1.66 0.35,3.14 -0.69,0.66 2.37,2.05 -0.96,2.62 -0.11,2.36 0.23,1.16 -0.28,1.41 2.83,1.15 1.18,0.99 0.49,1.01 -0.98,1.08 0.77,1.88 -0.54,1.2 0.47,1.64 -0.15,2.15 0.46,0.27 1.27,-0.14 1.28,0.94 0.61,0.06 1.74,1.07 0.03,1.12 0.72,1.73 -0.42,0.71 v 0 l -1.59,-0.65 -0.38,0.13 -0.38,0.83 0.42,2.24 -1.18,0.09 -1.17,-0.42 -1.34,1.55 -0.57,-0.05 -1.85,-1.71 -2.13,-0.19 -1.35,0.28 0.04,1.17 -1.42,1.66 -0.54,0.11 -1.44,-0.79 h -1.71 l -0.44,1.07 -0.31,0.04 -2.01,-1.41 -0.58,-1.42 -1.22,-0.85 -0.14,-1.04 -0.51,-0.57 -0.79,0.13 -1.88,1.03 -0.6,-0.44 -0.58,0.29 -0.26,-0.15 -0.48,-0.95 -0.47,0.73 -0.98,-0.76 -0.58,0.65 0.16,1.43 -0.38,1.62 -0.71,0.71 -0.49,1.52 -0.25,0.07 -0.57,-0.58 -0.13,-1.72 -1.63,-0.69 -0.4,-1.26 -0.91,-0.46 0.02,-1.01 -1.39,-0.22 -0.49,0.82 0.23,1.22 -0.27,1.05 0.14,0.88 -0.44,1.4 -0.53,0.53 -0.92,-0.31 -0.39,0.68 -1.7,0.66 -0.41,0.92 -0.46,0.32 -1.06,0.33 -0.94,-0.44 -0.49,0.33 -3,-2.31 -0.97,0.12 -1.29,1.27 -2.27,-1.59 -0.95,0.19 v 0 l -1.74,-2.57 -0.2,-0.93 0.32,-0.48 h 1.53 l -0.28,-1.79 0.89,-0.45 0.62,-1.61 -0.17,-1.51 0.36,-0.38 1.3,-0.33 -0.4,-0.37 0.66,-1.23 -0.19,-1.99 -0.85,-0.76 -0.04,-0.43 0.89,-0.87 -0.08,-0.56 0.44,-0.56 0.29,-1.42 0.77,-0.76 0.16,-3.43 0.91,-1.38 -0.09,-0.8 0.62,-0.86 -0.13,-1.03 0.72,-0.02 1.14,-0.83 0.18,-1.08 0.73,-0.68 0.4,-1.24 0.59,0.18 0.82,0.91 1.8,0.5 2.1,-0.75 0.71,-1.05 -0.32,-1.3 2.3,1.9 4.33,0.24 2.31,-2.37 -0.14,-1.62 0.82,-0.39 0.5,-0.73 -0.22,-0.73 0.35,-1.57 -1.2,-0.2 0.19,-2.07 -0.96,-0.8 0.23,-0.62 0.63,-0.2 0.4,-1.08 -0.75,-1.45 0.48,-1.01 -0.28,-0.16 -0.63,0.28 -0.35,-0.66 -0.54,-0.15 -0.15,-0.51 -1.03,-0.63 -0.86,-2.03 v 0 l 0.19,-1.01 1.34,-0.24 0.97,-0.96 -0.33,-1.51 -0.46,-0.52 0.33,-1.27 0.55,-0.18 0.12,-1.34 1.07,-0.77 -0.03,-0.54 0.66,-0.73 2.66,-1.73 0.32,-0.92 1.27,-1.77 -0.58,-1 -0.05,-0.79 0.13,-1.38 z"
       inkscape:connector-curvature="0"
       style="fill:#cccccc;fill-opacity:1;stroke:#ffffff;stroke-width:0.5;stroke-opacity:1" />
    <path
       id="MY-04"
       title="Melaka"
       class="land"
       d="m 94.05,201.37 1.08,-0.47 1.38,-1.7 0.75,0.15 0.4,-0.83 0.56,-0.4 2.98,-0.05 0.94,-1.41 2.89,1.31 1.5,-0.05 3.24,-1.04 1.53,0.36 1.54,1.05 5.1,1.51 1.09,-0.09 v 0 l -0.12,0.54 -1.78,0.69 -0.1,0.62 -0.88,0.76 -0.85,3.61 v 1.68 l -0.75,0.67 0.07,0.81 1.5,0.53 0.49,0.46 0.04,1.26 -0.64,0.37 v 0 l -1.12,0.26 v 0 l -0.7,0.17 v 0 l -1.25,-0.2 -1.42,-0.77 -1.31,-0.07 -1.1,-0.74 -3.97,-1.39 -2.05,-1.26 -1.63,0.03 -1.39,-2.04 -1.71,-1.11 -0.81,-1.77 -1.7,-1.02 -1.6,-0.19 z"
       inkscape:connector-curvature="0"
       style="fill:#cccccc;fill-opacity:1;stroke:#ffffff;stroke-width:0.5;stroke-opacity:1" />
    <path
       id="MY-05"
       title="Negeri Sembilan"
       class="land"
       d="m 91.94,166.07 0.22,-0.56 0.53,-0.32 1.3,0.34 0.88,1.53 2.03,0.26 1.04,2.38 2.1,-1.25 0.86,-0.04 1.05,0.99 8.96,2.35 3.03,3.9 7.67,5.07 1.22,0.34 0.62,2.14 v 0 l -2.82,7.87 0.52,1.23 -0.79,0.64 -0.41,1.02 0.19,1.88 -0.33,0.74 0.23,0.9 -0.96,1.15 -0.06,1.07 v 0 l -1.09,0.09 -5.1,-1.51 -1.54,-1.05 -1.53,-0.36 -3.24,1.04 -1.5,0.05 -2.89,-1.31 -0.94,1.41 -2.98,0.05 -0.56,0.4 -0.4,0.83 -0.75,-0.15 -1.38,1.7 -1.08,0.47 v 0 l -0.14,-0.98 -0.63,-0.12 -0.91,-0.83 -1.34,0.32 -1.22,-0.08 -0.52,0.6 -0.24,-0.32 0.39,-0.98 -0.56,-2.08 -1.01,-1.31 -1.15,-0.04 -0.04,-0.38 0.39,-0.45 -0.17,-1.29 -1.6,-1.13 -1.04,0.36 -0.69,-0.21 v 0 l 0.05,-0.29 0.86,-0.28 -0.06,-0.89 0.61,-0.58 -0.16,-0.54 0.55,-0.95 0.15,-1.26 -0.52,-6.1 4.91,0.17 0.67,-0.81 2.21,-5.01 1.11,-0.68 0.03,-0.66 -0.92,-2 0.56,-1.75 -0.48,-0.98 -0.14,-1.83 -0.48,-0.8 -0.1,-0.85 z"
       inkscape:connector-curvature="0"
       style="fill:#cccccc;fill-opacity:1;stroke:#ffffff;stroke-width:0.5;stroke-opacity:1" />
    <path
       id="MY-06"
       title="Pahang"
       class="land"
       d="m 70.4,111.69 0.95,-0.19 2.27,1.59 1.29,-1.27 0.97,-0.12 3,2.31 0.49,-0.33 0.94,0.44 1.06,-0.33 0.46,-0.32 0.41,-0.92 1.7,-0.66 0.39,-0.68 0.92,0.31 0.53,-0.53 0.44,-1.4 -0.14,-0.88 0.27,-1.05 -0.23,-1.22 0.49,-0.82 1.39,0.22 -0.02,1.01 0.91,0.46 0.4,1.26 1.63,0.69 0.13,1.72 0.54,0.61 0.25,-0.07 0.49,-1.52 0.71,-0.71 0.38,-1.62 -0.16,-1.43 0.58,-0.65 0.98,0.76 0.47,-0.73 0.48,0.95 0.26,0.15 0.58,-0.29 0.6,0.44 1.88,-1.03 0.79,-0.13 0.51,0.57 0.14,1.04 1.22,0.85 0.58,1.42 2.01,1.41 0.31,-0.04 0.44,-1.07 h 1.71 l 1.44,0.79 0.54,-0.11 1.42,-1.66 -0.04,-1.17 1.35,-0.28 2.13,0.19 1.85,1.71 0.57,0.05 1.34,-1.55 1.17,0.42 1.18,-0.09 -0.42,-2.24 0.38,-0.83 0.38,-0.13 1.59,0.65 v 0 l 1.25,1.75 0.75,0.34 0.78,0.83 2.26,0.54 2.57,0.01 1.64,2.59 -0.98,0.42 0.4,0.58 -0.24,0.68 -0.92,0.24 0.52,2.57 1.35,1.24 h 1.6 l 1.07,-0.48 0.73,0.14 0.86,0.78 1.01,1.84 0.14,0.59 -0.79,1.26 0.42,1.23 -1.69,0.26 -0.46,1.33 -1.02,0.97 0.07,1.17 -0.71,1.27 0.27,1.76 -0.97,1.32 0.68,0.99 0.92,0.51 2.26,-1.09 1.01,0.42 1.78,0.07 0.69,0.71 1.11,0.24 1.04,1.29 1.4,1.07 1.29,-0.27 0.64,0.89 1.2,-0.03 0.09,0.78 1.34,1.21 -0.21,0.76 1.48,2.18 0.43,-0.21 -0.36,-0.9 0.85,-0.75 0.13,-0.69 -0.46,-1.81 -0.01,-1.88 -0.99,-1.15 0.19,-1.36 0.78,-1.43 -0.35,-2.06 1.1,0.71 0.75,0.14 3.1,-0.4 v 0 l -0.35,0.4 -0.81,0.03 -0.28,1.49 -0.91,0.73 -0.08,0.48 0.54,2.66 1.7,3.07 -0.28,0.28 -1.29,-0.4 -1.36,1.98 -0.09,1.43 0.51,2.48 -0.15,0.63 -1.32,-0.07 -0.54,1.47 -0.11,1.26 0.54,1.61 1.23,2.12 2.7,3.44 1.29,1.11 0.32,1.12 -0.15,0.64 -1.15,1.33 -0.59,1.9 -0.25,2.02 0.95,6.02 0.01,4.2 -0.41,1.22 -0.33,4.68 0.57,2.74 0.56,1.17 2.91,3.71 4.08,3.98 v 0 l -0.08,0.36 -0.96,-0.21 -0.64,0.39 0.27,0.97 0.43,0.03 0.2,-0.66 0.27,0.79 0.08,0.83 -0.33,0.52 0.29,0.26 -0.85,0.4 0.21,0.42 0.39,-0.26 0.11,0.44 -0.89,0.24 -0.14,0.95 0.27,0.22 0.92,-0.1 -0.02,0.59 0.64,1.36 -0.48,0.75 -0.53,-0.23 -0.35,0.27 -0.59,-0.12 -4.38,-2.21 -1,-1.22 -1.4,-0.23 -2.44,-1.35 -3.15,0.6 -5.45,2.11 -7.16,-3.11 -7.03,-8.23 -3.74,-1.1 v 0 l -0.62,-2.14 -1.22,-0.34 -7.67,-5.07 -3.03,-3.9 -8.96,-2.35 -1.05,-0.99 -0.86,0.04 -2.1,1.25 -1.04,-2.38 -2.03,-0.26 -0.88,-1.53 -1.3,-0.34 -0.53,0.32 -0.22,0.56 v 0 l -0.83,-0.43 -1.15,0.03 -2.07,-1.16 -1.64,-2.53 -0.7,-0.47 0.31,-1.05 0.87,-1.01 -0.36,-1.51 -0.81,-1.57 0.95,-1.7 1,-0.49 0.21,-2.02 -0.86,-0.9 -0.82,-1.98 -1.14,-1.16 -0.53,-0.27 -1.83,-0.05 -1.13,-0.69 -1.29,-1.67 v 0 l -0.37,-0.76 -1.04,-0.43 0.1,-1.34 0.42,-0.85 -0.29,-1.1 -0.8,-0.69 -0.07,-3.72 -0.79,-1.1 0.18,-0.73 0.85,-1.2 -0.02,-0.57 -1.98,-1.67 -0.97,-0.16 -0.44,-1.55 0.43,-1.69 -1.56,-0.17 -0.52,-0.44 -0.15,-0.68 0.42,-0.51 -0.71,-1.13 0.17,-1.52 -0.86,-0.94 0.56,-1.33 -0.11,-0.29 -1.79,-0.83 -1.38,0.3 -0.44,-1.16 -0.72,-0.44 1,-1.27 0.29,-1.08 0.84,-0.6 -0.05,-0.38 -1,-0.67 -0.23,-1.92 0.42,-0.82 z"
       inkscape:connector-curvature="0"
       style="fill:#cccccc;fill-opacity:1;stroke:#ffffff;stroke-width:0.5;stroke-opacity:1" />
    <path
       id="MY-07"
       title="Pulau Pinang"
       class="land"
       d="m 25.58,76.74 0.42,0.44 0.94,0.1 0.15,1.08 1.37,0.63 -1.18,1.58 -0.07,1.27 -1.24,3.67 -0.37,0.11 -0.62,-0.85 -1.28,-0.34 -1.54,0.25 -0.18,0.59 -0.3,-0.55 0.17,-1.02 0.57,-0.19 -0.04,-1.27 -0.47,-2.02 0.01,-2.54 -0.34,-0.76 0.18,-0.16 1.28,0.7 1.07,-0.22 0.71,-0.71 z m 2.94,-4.04 1.75,-0.2 1.18,0.68 1.14,-0.06 1.3,0.37 1.03,-0.39 0.91,0.39 -0.11,7.65 0.98,9.11 -0.18,0.19 -1.71,-0.38 v 0 l -1.04,0.4 -3.57,0.22 v 0 l 1.37,-1.49 -0.21,-0.33 0.27,-1.85 -0.6,-1.9 0.31,-0.64 -0.26,-1.07 -0.34,-0.31 0.11,-0.67 -1.64,-1.99 -0.1,-0.5 0.49,-0.99 0.25,-1.61 -0.78,-3.48 -0.92,-0.92 z"
       inkscape:connector-curvature="0"
       style="fill:#cccccc;fill-opacity:1;stroke:#ffffff;stroke-width:0.5;stroke-opacity:1" />
    <path
       id="MY-08"
       title="Perak"
       class="land"
       d="m 39.33,110.09 1.92,1.69 -0.58,0.62 0.18,0.99 -1.52,0.48 -1.36,-0.52 0.35,-2.01 z m 0.17,-4.38 1.56,0.71 0.29,0.7 -1,1.89 -0.66,-0.09 -1.17,0.4 -0.64,-1.89 -0.1,-1.46 0.31,-0.56 z m 38.84,-47.34 1.67,1.41 0.5,0.79 1.07,0.3 0.07,2.29 1.18,1.37 0.37,0.86 0.47,-0.2 0.44,-0.83 1.34,-0.54 1.75,2.11 0.87,0.33 -0.04,-1.05 0.34,-0.94 0.68,-0.11 1.28,-0.88 v 0 l 0.86,2.03 1.03,0.63 0.15,0.51 0.54,0.15 0.35,0.66 0.63,-0.28 0.28,0.16 -0.48,1.01 0.75,1.45 -0.4,1.08 -0.63,0.2 -0.23,0.62 0.96,0.8 -0.19,2.07 1.2,0.2 -0.35,1.57 0.22,0.73 -0.5,0.73 -0.86,0.4 0.13,1.62 -2.31,2.37 -4.33,-0.24 -2.3,-1.9 0.32,1.3 -0.71,1.05 -2.1,0.75 -1.8,-0.5 -0.82,-0.91 -0.59,-0.18 -0.4,1.24 -0.73,0.68 -0.18,1.08 -1.14,0.83 -0.72,0.02 0.13,1.03 -0.61,0.86 0.12,0.75 -0.91,1.38 -0.16,3.43 -0.77,0.76 -0.29,1.42 -0.44,0.56 0.08,0.56 -0.89,0.87 0.04,0.43 0.85,0.76 0.19,1.99 -0.66,1.23 0.4,0.37 -1.3,0.33 -0.36,0.38 0.17,1.51 -0.62,1.61 -0.89,0.45 0.28,1.79 h -1.53 l -0.32,0.48 0.2,0.93 1.74,2.57 v 0 l -0.93,0.3 -0.42,0.82 0.23,1.92 1,0.67 0.05,0.38 -0.84,0.6 -0.29,1.08 -1,1.27 0.72,0.44 0.44,1.16 1.38,-0.3 1.79,0.83 0.11,0.29 -0.56,1.33 0.86,0.94 -0.17,1.52 0.71,1.13 -0.42,0.51 0.15,0.68 0.52,0.44 1.56,0.17 -0.43,1.69 0.44,1.55 0.97,0.16 1.98,1.67 0.02,0.57 -0.85,1.2 -0.18,0.73 0.79,1.1 0.07,3.72 0.8,0.69 0.29,1.1 -0.42,0.85 -0.1,1.34 1.04,0.43 0.37,0.76 v 0 l -0.99,-0.05 0.04,1.03 -0.28,0.38 -0.29,-0.14 -0.26,0.23 -0.3,1.33 -0.86,0.35 -0.44,0.77 -0.55,0.12 -1.92,-1.47 -1.21,-0.49 -0.43,-0.93 -1.81,-1.01 -0.33,0.07 -0.14,-0.83 -1.06,-0.45 -0.8,0.28 -0.44,0.76 0.81,2.18 -0.03,0.96 -1.48,0.85 -1.34,0.29 -1.18,-0.26 0.08,-1.76 -1.31,0.4 -0.78,-0.41 -0.88,0.24 -0.75,-1.24 -0.21,0.46 -0.6,-0.22 0.27,-0.48 -0.34,-0.46 -0.5,0.77 -0.4,-0.09 -0.21,0.43 -0.58,-0.39 -0.63,0.61 0.03,-1.34 0.91,0.11 -0.5,-0.96 -0.9,1 -0.27,-0.02 -0.11,-1.45 -1.1,0.4 -0.17,-0.72 -1.04,-0.01 -0.38,0.23 -0.34,0.91 -0.57,-0.06 -0.36,-0.74 0.58,-1.04 -1.42,-0.69 -0.1,-1.27 -1.35,0.46 -3.01,0.3 -0.76,1.73 v 0 l 0.4,-2.16 -0.66,-0.09 -1.1,0.53 -0.88,-0.19 -1.59,-1.05 -0.38,-1.28 -0.01,-3.32 0.4,-0.52 1.87,-0.52 0.28,-1.1 -0.22,-1.62 -2.71,-2.95 -1.28,-0.46 h -1.05 l -0.43,0.56 -0.95,-1.35 0.28,-0.95 -0.56,-0.47 -0.19,-0.69 1.33,0.41 1.04,-0.45 0.66,-0.88 0.13,-2.08 -0.38,-0.15 -0.25,2.36 -0.66,0.59 -1.86,-0.37 -0.18,-1.41 -0.44,-0.73 -0.71,0.01 1.09,-2.61 0.09,-1.52 -0.2,-0.18 0.37,-0.56 0.18,0.31 0.41,-0.08 0.25,-0.55 0.37,-3.5 1.03,-0.79 0.48,-1.06 -0.21,-0.81 0.4,-0.65 -1.67,-1.63 1.45,-1.4 0.55,-1.82 -0.3,-0.64 -2.16,-1.09 0.08,-0.49 0.6,-0.59 -0.16,-1.64 -1.52,-0.21 -0.45,-0.73 -0.66,0.17 -0.43,-0.23 0.18,-0.88 -0.65,-0.35 0.09,-0.23 0.3,-0.06 0.48,0.49 0.56,-0.17 0.21,-0.2 L 37.71,99 37.39,98.88 36.78,99.25 36.45,98.7 h -0.38 l -0.24,0.22 0.22,0.54 -0.59,-0.07 0.22,0.54 -0.18,0.15 -0.55,-0.72 -1.44,-0.47 -1.15,0.49 L 31.84,98.74 31.5,98 31.4,96.31 30.73,96.21 29.84,93.78 29,92.43 l 0.21,-0.6 0.74,-0.45 0.22,-0.71 v 0 l 3.57,-0.22 1.04,-0.4 v 0 l -0.35,0.52 0.2,0.43 0.42,-0.15 0.31,0.27 -0.13,0.85 0.73,0.29 0.54,-0.19 0.69,0.38 1.08,-1.52 1.09,-0.22 0.65,-1.53 1.49,-0.54 0.28,-0.67 -0.23,-0.35 0.83,-1.59 0.6,-0.05 1.25,-0.75 -0.02,-0.98 0.35,-0.78 2.78,-0.29 1.43,-1.21 0.42,-1.85 -0.11,-0.66 0.49,-0.82 0.31,-2 0.54,-0.63 0.69,0.17 0.6,-0.28 0.93,-1.97 -0.24,-1.53 -0.45,-0.53 -0.03,-0.54 0.65,-0.65 0.24,-0.88 0.81,-0.06 0.5,-2.35 -0.23,-0.56 -0.98,-0.86 -0.06,-1.05 0.25,-0.24 1.16,0.17 0.17,-0.74 v 0 l 1.05,0.73 0.57,1.02 1.1,0.02 0.29,0.25 2.37,3.43 0.45,1.61 1.6,-1.38 1.28,-0.47 2.07,-2.13 0.11,-0.7 -0.4,-1.19 0.54,-1.42 0.73,-0.83 0.49,-0.1 0.9,0.5 2.15,-1.11 1.01,-1.56 3.67,-0.15 2.21,-1.63 z"
       inkscape:connector-curvature="0"
       style="fill:#cccccc;fill-opacity:1;stroke:#ffffff;stroke-width:0.5;stroke-opacity:1" />
    <path
       id="MY-09"
       title="Perlis"
       class="land"
       d="m 22.8,26.53 0.39,0.13 0.81,1.06 0.72,-0.17 0.18,-0.5 0.14,0.67 0.46,0.1 0.23,-0.66 0.69,-0.03 0.02,0.88 1.17,0.96 0.04,1.8 -0.5,0.59 1.63,1.35 0.22,0.97 0.49,0.38 v 0 l -0.27,3.12 -0.71,0.89 -1.76,1.26 -0.9,1.47 -2.92,3.17 -0.55,1.48 v 0 l -1.01,-1.48 -1.85,-4.59 0.94,-1.95 -0.1,-0.62 0.58,-0.76 -0.12,-3.61 0.93,0.22 0.18,-0.22 -0.73,-2.16 0.6,-0.96 -0.04,-1.02 -0.33,-0.57 0.64,-0.9 z"
       inkscape:connector-curvature="0"
       style="fill:#cccccc;fill-opacity:1;stroke:#ffffff;stroke-width:0.5;stroke-opacity:1" />
    <path
       id="MY-10"
       title="Selangor"
       class="land"
       d="m 93.06,172.56 0.56,-1.75 -0.48,-0.98 -0.15,-1.83 -0.48,-0.8 -0.1,-0.85 -0.48,-0.28 -0.83,-0.43 -1.15,0.03 -2.07,-1.16 -1.64,-2.53 -0.7,-0.47 0.31,-1.05 0.87,-1.01 -0.36,-1.51 -0.81,-1.57 0.95,-1.7 1,-0.49 0.21,-2.02 -0.86,-0.9 -0.82,-1.98 -1.14,-1.16 -0.53,-0.27 -1.83,-0.05 -1.13,-0.69 -1.29,-1.67 -0.99,-0.05 0.04,1.03 -0.28,0.38 -0.29,-0.14 -0.26,0.23 -0.3,1.33 -0.86,0.35 -0.44,0.77 -0.55,0.12 -1.92,-1.47 -1.21,-0.49 -0.43,-0.93 -1.81,-1.01 -0.33,0.07 -0.14,-0.83 -1.06,-0.45 -0.8,0.28 -0.44,0.76 0.81,2.18 -0.03,0.96 -1.48,0.85 -1.34,0.25 -1.18,-0.26 0.08,-1.76 -1.31,0.4 -0.78,-0.41 -0.88,0.24 -0.75,-1.24 -0.21,0.46 -0.6,-0.22 0.27,-0.48 -0.34,-0.46 -0.5,0.77 -0.4,-0.09 -0.21,0.43 -0.58,-0.39 -0.63,0.61 0.03,-1.34 0.91,0.11 -0.5,-0.96 -0.9,1 -0.27,-0.02 -0.11,-1.45 -1.1,0.4 -0.17,-0.72 -1.04,-0.01 -0.38,0.23 -0.34,0.91 -0.57,-0.06 -0.36,-0.74 0.58,-1.04 -1.42,-0.69 -0.1,-1.27 -1.35,0.46 -3.01,0.3 -0.76,1.73 0.47,1.05 1.54,0.17 1.49,0.97 0.82,0.94 0.87,2 2.03,0.61 1.94,1.72 0.96,1.37 1.52,3.78 3.24,4.5 0.46,1.22 2.13,1.23 1.68,1.71 0.83,2.45 0.32,3.45 1.98,2.65 -0.19,1.94 0.34,0.52 0.98,-0.05 0.22,0.54 -1.06,1.16 -0.39,1.62 0.53,0.52 0.33,-0.11 0.25,-1.22 0.67,-0.65 0.4,-0.9 0.44,-0.02 0.63,0.5 -1.34,1.13 0.74,0.26 0.3,0.6 -0.41,0.2 -0.38,0.72 0.53,0.68 0.13,-1.29 0.92,0.47 0.1,0.37 -0.37,0.84 -0.79,0.09 -0.06,0.61 -0.34,0.12 -0.02,1.51 -0.41,0.46 0.95,0.93 1.35,2.59 0.85,0.84 2.28,1.03 1.57,0.37 1.26,0.8 2.48,0.63 0.99,0.9 0.69,-0.19 0.05,-0.29 0.86,-0.28 -0.06,-0.89 0.61,-0.58 -0.16,-0.54 0.55,-0.95 0.15,-1.26 -0.52,-6.1 4.91,0.17 0.67,-0.81 2.21,-5.01 1.11,-0.68 0.03,-0.66 z m -9.08,8.67 -0.75,0.43 -1.5,0.11 -0.43,-0.64 -0.32,-1.17 -0.18,-1.28 0.82,-0.11 1.6,0.21 0.86,1.28 z m 1.37,-12.11 -0.16,0.03 -0.26,0.07 -0.11,0.07 -0.01,0.25 0.04,0.21 0.05,0.25 -0.07,0.38 -0.14,0.22 -0.08,0.14 0.01,0.39 0.06,0.33 0.12,0.26 0.17,0.15 0.18,0.17 0.13,0.25 -0.01,0.25 -0.12,0.23 -0.09,0.36 -0.01,0.16 0.1,0.12 v 0.56 l -0.01,0.18 -0.11,0.08 -0.14,0.04 -0.08,0.01 -0.13,0.05 -0.11,0.06 -0.07,0.08 -0.05,0.07 -0.02,0.15 -0.02,0.12 -1.19,0.31 -2,-0.54 -0.21,-1.13 -0.21,-0.43 -0.96,-0.85 L 79.2,171 v -0.96 l 0.86,-1.06 0.41,-1.12 0.11,-0.23 0.06,-0.13 0.11,-0.07 0.15,-0.03 0.25,0.03 0.21,0.1 0.13,0.09 0.17,0.06 0.21,0.04 0.11,-0.01 0.02,-0.16 0.05,-0.08 0.08,-0.07 0.1,-0.07 0.17,-0.05 0.17,0.06 0.44,0.24 0.28,0.13 0.19,-0.02 0.1,-0.05 0.34,-0.26 0.13,-0.21 0.07,-0.08 0.07,-0.06 0.16,-0.07 0.15,-0.05 0.08,-0.03 0.11,0.03 0.07,0.13 -0.03,0.08 -0.09,0.07 -0.03,0.09 -0.06,0.09 -0.07,0.15 0.08,0.14 0.19,0.14 0.17,0.17 0.21,0.13 0.1,0.13 0.19,0.48 0.03,0.24 z"
       inkscape:connector-curvature="0"
       style="fill:#cccccc;fill-opacity:1;stroke:#ffffff;stroke-width:0.5;stroke-opacity:1" />
    <path
       id="MY-11"
       title="Terengganu"
       class="land"
       d="m 117.81,62.54 2.83,1.96 2.33,3.02 1.53,1.38 2.9,1.89 1.97,1.95 2.88,1.63 0.65,0.16 0.57,-0.28 1.65,1.16 4.75,4.66 3.19,5.09 -0.12,0.58 0.5,0.98 1.28,1.96 2.26,4.67 6.31,11.49 -0.72,0.56 1.12,3.2 -0.42,1.83 1.51,4.6 -1.16,1.09 -0.15,1.19 0.48,1.43 -0.04,1.51 1.52,2.93 -0.85,2.74 -0.46,0.69 -0.74,0.33 0.13,1.86 v 0 l -3.1,0.4 -0.75,-0.14 -1.1,-0.71 0.35,2.06 -0.78,1.43 -0.19,1.36 0.99,1.15 0.01,1.88 0.46,1.81 -0.13,0.69 -0.85,0.75 0.36,0.9 -0.43,0.21 -1.48,-2.18 0.21,-0.76 -1.34,-1.21 -0.09,-0.78 -1.2,0.03 -0.64,-0.89 -1.29,0.27 -1.4,-1.07 -1.04,-1.29 -1.11,-0.24 -0.69,-0.71 -1.78,-0.07 -1.01,-0.42 -2.26,1.09 -0.92,-0.51 -0.68,-0.99 0.97,-1.32 -0.27,-1.76 0.71,-1.27 -0.07,-1.17 1.02,-0.97 0.46,-1.33 1.69,-0.26 -0.42,-1.23 0.79,-1.26 -0.14,-0.59 -1.01,-1.84 -0.86,-0.78 -0.73,-0.14 -1.07,0.48 h -1.6 l -1.35,-1.24 -0.52,-2.57 0.92,-0.24 0.24,-0.68 -0.4,-0.58 0.98,-0.42 -1.64,-2.59 -2.57,-0.01 -2.26,-0.54 -0.78,-0.83 -0.75,-0.34 -1.25,-1.75 v 0 l 0.42,-0.71 -0.72,-1.73 -0.03,-1.12 -1.74,-1.07 -0.61,-0.06 -1.28,-0.94 -1.27,0.14 -0.46,-0.27 0.15,-2.15 -0.47,-1.64 0.54,-1.2 -0.78,-1.88 0.97,-1.09 -0.49,-1.01 -1.18,-0.99 -2.83,-1.15 0.28,-1.41 -0.23,-1.16 0.11,-2.36 0.96,-2.62 -2.37,-2.05 0.69,-0.66 -0.35,-3.14 0.65,-1.66 -0.98,-5.45 3.61,-3.32 2.57,-2.94 v 0 z"
       inkscape:connector-curvature="0"
       style="fill:#cccccc;fill-opacity:1;stroke:#ffffff;stroke-width:0.5;stroke-opacity:1" />
    <path
       id="MY-12"
       title="Sabah"
       class="land"
       d="m 713.55,29.16 0.54,-0.77 1.35,-0.14 1.4,0.3 1.15,-0.81 -0.49,-0.5 -1.17,-0.29 -0.32,-0.83 0.16,-0.34 1.09,-0.51 1.17,0.31 1.03,-0.46 0.9,1.98 0.65,0.77 0.02,0.79 -0.38,0.56 -0.84,0.55 -1.13,0.17 -0.9,0.63 -1.36,0.13 -0.63,-0.51 -1.44,-0.17 z m -17.89,-22.64 -0.42,0.18 0.16,-0.47 0.9,0.09 0.21,-0.59 1.12,0.25 1.03,-0.68 1.26,0.25 -0.25,-0.71 -0.66,-0.66 0.61,-1.22 0.72,0.24 -0.21,0.55 0.36,0.35 0.81,0.28 -0.19,-0.88 0.22,-1.07 -0.63,-1.47 -0.62,0.48 -0.4,1.06 -1.97,1.09 -0.91,-0.35 -0.56,0.55 -0.38,-0.06 -1.36,3.53 0.35,0.38 1.33,-0.7 z m 7.28,1.51 -0.08,0.3 0.57,-0.05 -0.48,0.67 -0.11,1.1 0.68,0.66 -0.08,0.61 0.64,-0.62 0.16,-0.96 2.54,-1.62 1.1,-0.42 1.43,0.2 1.01,-1.45 -0.2,1.4 0.64,-0.03 0.26,-0.82 0.83,-1.02 -0.08,-0.66 -0.72,0.17 -0.13,-0.37 0.71,-0.37 -0.48,-0.07 -0.12,-0.46 0.46,-1.08 0.8,-0.58 -0.46,-1.26 -1.93,-0.61 -1.3,0.49 -0.8,-0.33 -0.68,0.71 -0.58,-0.45 -1.15,1.52 -1.95,0.43 -0.55,0.49 0.34,1.28 -0.61,2.08 0.47,0.13 -0.55,0.62 z m 60.1,104.5 0.54,-1.2 0.53,-0.05 0.32,-0.57 -1.58,-0.86 -0.49,0.37 -0.65,-0.12 -0.12,-0.48 -0.33,-0.01 -0.07,0.6 -0.4,0.2 -0.42,-1.34 -0.79,-0.32 -0.23,-0.71 -1.2,0.65 -0.06,0.83 -3.47,-0.17 -0.93,0.44 0.87,0.47 1.17,-0.12 2.71,0.76 0.36,0.81 0.77,0.11 0.51,-0.46 1.44,0.85 0.72,-0.02 -0.14,-0.35 0.5,-0.47 z m 28.2,-26.39 -0.18,-0.85 0.41,-0.48 0.33,-1.33 -0.32,-1.95 -0.63,-1.18 -1.64,-1.63 -1.67,-0.84 -1.99,0.55 -0.38,0.97 -1.61,0.45 -1.94,-0.27 -2.74,-0.96 0.07,2 -1.64,0.28 -1.03,-0.44 2.23,-1.29 -0.54,-0.82 -4.56,-2.88 0.13,1.86 -0.09,0.88 -0.3,0.21 -0.15,-1.76 0.27,-0.7 -0.4,-0.64 -3.47,-2.05 -2.31,-2.67 -0.88,-0.54 -1.51,0.83 -0.4,2.22 -0.58,0.76 -0.34,1.25 -0.32,-0.01 -0.3,-0.29 0.31,-1.45 0.84,-1.13 -0.12,-1.56 0.57,-0.03 0.84,-0.64 -0.21,-0.5 -0.99,-1.07 -9.09,-5.77 -0.21,0.09 0.3,1.13 -0.27,0.94 -0.86,-1.76 -1.41,-0.18 -1.98,-0.79 -1.01,0.91 -2.52,0.62 -0.28,0.38 0.63,1.63 -0.31,0.46 h -0.75 l -0.37,0.58 0.9,1.42 -0.67,0.49 -0.12,0.49 -0.38,-0.06 -0.26,-1.49 -0.61,-0.19 -0.47,0.58 -0.81,-0.26 0.09,-0.69 -0.44,-0.04 -1,0.4 -0.43,0.62 -1.16,0.64 -1.64,0.06 -0.44,0.5 0.05,-0.48 0.47,-0.47 -0.63,0.1 -0.17,-0.77 0.61,-0.74 -0.1,-0.31 -1.28,-0.16 -0.45,-0.37 0.35,-0.48 -0.7,0.07 -0.4,-0.32 0.96,-0.44 -0.49,-0.75 0.75,-0.31 1.54,0.28 0.29,-0.16 -0.23,-0.29 1.36,0.01 0.77,-0.49 0.36,1.01 0.54,0.12 1.1,-0.71 0.85,-0.08 0.17,-0.67 1.63,-0.59 0.39,-0.47 -1.47,-1.22 0.1,-1.07 -0.74,0.21 -1.24,-0.87 0.76,-1.39 -1.36,-1.65 0.43,-1.44 -1.29,0.38 -0.18,-1.35 -1.01,-0.23 -0.53,0.34 -0.24,0.82 -2.71,2.32 0.31,0.37 -0.38,0.69 -0.78,0.41 -2.11,0.31 -2.73,-0.13 -0.02,0.46 0.72,1.32 -0.22,0.74 -0.13,-1.12 -1.47,0.28 -2,-0.48 -2.2,0.54 -1.21,-0.4 -3.82,1 -0.53,0.68 -0.67,-0.08 0.76,-0.82 1.3,-0.28 2.48,-1.28 -0.41,-0.43 -0.13,0.41 -0.25,-0.15 -0.01,-1.2 0.29,0.01 0.27,0.56 0.25,-1.23 0.79,0.09 1.01,-0.85 -0.16,-1.32 0.33,-0.7 0.94,-0.44 v -0.77 l -0.66,-1.21 -0.54,0.13 0.34,-0.59 -0.82,-0.84 -0.65,-1.24 -0.61,-0.33 0.93,-1.19 2.01,-1.32 2.03,0.3 0.18,-0.27 0.84,-2.62 -0.45,-2.21 0.08,-1.25 0.58,-0.65 0.2,-0.89 -4.5,-3.44 -1.01,0.09 -2.16,-1.12 0.25,-0.59 -0.93,-1.12 -0.55,-2.08 -1.98,3.12 -0.41,0.03 -1.46,-0.02 -0.83,-0.42 -0.39,-1.38 -1.34,-0.38 -0.34,-0.47 -0.74,0.5 -0.67,-0.56 -0.38,0.49 -0.73,-0.29 -1.1,-3.41 0.71,-0.6 0.08,-0.5 -1.55,-1.31 -0.45,-1.85 -0.52,-0.52 0.56,-0.58 -0.13,-0.66 0.85,-0.63 -0.09,-0.39 -0.36,-0.04 0.65,-0.63 -0.39,-1.53 0.19,-0.54 -1.58,-0.22 -0.66,-0.36 -0.72,-1.21 -1.09,-1.07 -1.03,0.21 0.18,0.82 -1.25,-0.42 -1.68,0.91 v 0.61 l 1.05,0.5 -0.52,0.43 -0.8,0.07 -0.08,-0.39 -0.49,-0.28 -0.33,0.24 0.06,2.2 0.95,0.57 -0.2,1.36 0.37,0.01 -0.03,0.21 -1.32,0.41 0.09,0.43 -0.63,1.19 -0.72,0.45 0.04,0.45 -0.76,0.78 -0.07,0.56 0.35,0.48 -0.13,0.71 -1.57,0.96 -0.48,0.6 -0.82,0.08 -1.31,1.67 -0.77,0.2 -0.18,1.39 -1.74,0.69 -0.78,-0.01 -1.47,-0.57 0.13,-2.2 1.06,-1.27 1.38,-2.77 1.6,-1.54 -0.27,-0.88 0.22,-1.22 -0.72,-0.6 0.76,-0.73 -1.09,-0.25 -1.24,0.46 -0.45,-0.57 -0.1,-0.77 0.97,0.58 0.64,-0.82 0.97,0.61 0.35,-0.09 0.1,-0.43 -0.96,-1.72 0.12,-0.62 -0.48,-0.85 -0.65,-0.2 -1.4,-1.63 -0.97,-0.92 -0.3,0.01 -0.89,1.94 v 0.86 l -0.84,0.25 0.08,1.22 -0.97,1.74 -0.53,0.49 -1.17,0.41 0.17,1.07 0.9,0.34 0.16,0.34 -0.79,0.25 -0.44,1.08 -0.46,0.33 0.61,1.72 -0.02,1.2 -1.09,1.6 -1.67,0.82 -1.36,2.58 -1.85,2.1 0.26,0.27 -0.52,1.59 -2.5,1.9 -3.66,2.04 0.39,0.85 -0.45,0.25 -0.19,-0.37 -0.65,0.52 0.39,0.72 -0.19,0.65 0.46,0.58 -0.38,0.38 -0.74,0.11 -0.3,-0.08 -0.01,-0.65 -0.91,1.01 -1.66,0.62 -0.4,0.85 -1.49,1.33 -0.55,1.35 -1.19,1.74 -1.25,1.05 -1.01,0.38 0.75,1.18 0.58,-0.8 0.52,0.4 -0.84,1.52 -0.02,2.1 -0.44,0.28 -0.46,-0.27 -0.71,0.76 -0.43,0.08 -0.86,3.02 0.42,1.33 -0.61,1.6 -0.85,0.21 -0.25,0.81 -1.38,0.94 -2.75,1.2 -0.32,0.78 -0.51,4.85 -1.02,1.79 -1.74,0.95 -2.07,0.51 -4.1,-0.41 -1.59,-0.58 -0.67,-0.6 0.63,-1.8 -0.17,-0.37 -0.92,-0.26 -0.68,1.7 -1.26,1.94 -2.11,1.61 -2.85,3.06 -0.71,0.44 -0.84,0.09 -0.59,0.58 -0.37,3.02 -0.81,1.02 1.02,0.02 0.36,-0.28 0.19,-0.75 0.77,-0.38 -0.8,1.48 1.38,0.92 0.02,-0.38 0.36,-0.25 0.52,0.57 -0.25,0.81 2.72,1.89 0.58,-0.05 0.46,0.41 1.24,-0.21 -0.07,0.73 0.52,-0.25 0.83,-1.47 0.53,0.26 -0.42,0.63 0.15,0.94 -0.53,0.06 -1.04,1.59 0.1,1.03 -0.32,1.68 -1.44,1.77 -1.71,0.57 -0.58,1.16 v 0 l 1.95,0.74 2.4,-1.15 2.04,-0.25 0.44,0.11 0.41,0.64 0.08,1.39 1.22,4.41 -0.04,1.95 -0.84,0.94 -1.38,3.32 -1.67,1.71 -0.35,1.32 0.88,1.45 -0.03,1.05 0.42,0.81 -0.03,0.64 -0.65,0.77 1.29,2.59 -0.25,2.1 0.86,0.74 1.53,0.4 0.82,1.18 0.02,0.81 -1,1.87 -0.38,2.49 0.56,1.99 0.99,0.55 v 0 l 0.19,-1.22 0.7,-1.38 1.05,-0.06 0.29,-0.59 0.82,-0.34 0.57,-1.1 0.87,-0.01 0.48,0.84 0.87,-0.23 0.33,-1.33 1.68,-1.35 -0.35,-0.99 0.37,-2.43 0.58,-0.41 0.68,0.1 0.94,1.34 2.71,0.28 1.22,0.79 0.4,1.47 1.39,0.83 1.63,-2.49 1.65,-0.44 0.54,-1.63 3.25,0.41 0.86,0.52 3.47,-0.9 1.73,1.08 0.51,0.94 0.59,0.22 0.22,1.22 0.45,0.33 1.25,-0.48 0.51,-1.26 0.74,0.44 1.18,-0.19 -0.15,-1.41 1.34,-1.69 0.67,1.04 1.13,0.44 0.24,1.14 0.33,0.26 1.04,-0.18 0.58,-0.41 0.71,0.33 h 1.17 l 0.85,-0.51 0.7,-1.26 1.5,1.7 0.89,-0.17 0.84,0.7 1.58,-0.37 1.7,-1.15 0.57,0.38 0.82,0.06 0.66,0.62 1.55,-0.07 0.73,0.92 1.07,-1.08 2.37,0.51 1.47,-0.49 1.35,0.44 1.21,-0.14 0.52,-0.88 1.3,-0.59 2.82,2.58 4.29,2.64 0.59,1.63 0.9,0.78 2.75,0.77 0.46,-0.93 -0.35,-1.97 1.1,-0.9 -0.54,-0.9 -0.05,-1.05 0.35,-0.46 1.37,0.17 0.78,-0.23 0.31,0.69 0.29,-0.02 0.27,-1.78 -0.5,-0.51 -0.24,0.55 -0.85,-1.82 1.35,-0.22 -0.91,-0.42 0.04,-0.23 0.45,-0.17 0.26,0.31 1.62,-0.92 0.7,0.36 0.23,0.49 -0.17,0.75 0.56,0.62 1.1,0.86 0.99,0.14 0.71,0.77 1.42,0.14 0.8,1.01 1.58,0.64 0.96,1.84 0.92,0.2 1.22,-0.38 1.41,0.48 0.49,0.51 0.72,0.05 3.24,-1.31 2.06,-1.28 1.87,-0.46 0.86,0.27 1.1,-0.28 0.95,-0.64 3.18,-0.44 0.5,-0.5 0.06,-0.59 -0.64,-0.07 -0.25,-0.55 1,0.25 0.56,0.84 1.04,-0.2 0.36,0.58 0.38,0.09 3.45,-1.25 2.67,0.36 -0.13,-1.13 0.53,0.33 1.4,-1.14 -0.86,-1.14 1.19,0.23 0.01,0.63 0.37,0.13 1.21,-1.55 -0.97,-1.38 -1,-0.34 -0.07,-0.39 -0.4,-0.03 -0.01,0.32 -0.48,-0.09 0.92,-0.78 -0.08,-0.22 -2.4,-0.4 -1.26,1.74 -0.52,-0.11 -0.43,-0.71 -1.54,-0.96 0.43,-0.33 0.56,0.33 0.47,-0.16 0.47,-1.3 -0.15,-0.28 -0.36,-0.26 -0.52,0.23 -1.15,-1.28 -0.64,0.04 -0.26,0.61 -0.4,0.15 -1.3,-1.21 -0.01,-0.68 -2.6,-0.17 -0.05,-0.92 -1.52,-0.24 -0.4,-0.97 -1.17,-0.82 -1.15,-2.1 -0.36,-2 -0.73,-0.46 -0.3,-0.81 -1.32,-0.04 -0.24,-1.52 0.85,-0.26 0.4,0.25 0.3,-1.29 1.17,-0.43 -0.39,-0.45 0.3,-0.36 1.75,-1.13 1.91,0.27 0.12,-0.7 0.32,-0.07 -0.03,0.75 0.47,0.1 0.51,-1.78 0.75,-0.69 2.25,0.07 1.67,0.58 0.78,0.81 -0.26,0.87 1.06,1.66 1.81,0.01 1.42,-1.54 4.79,1.12 1.99,-0.77 0.15,0.26 0.88,-0.09 2.45,-1.45 2.3,-0.41 1.27,-1.13 0.92,-0.36 7.02,-1.83 3.22,-1.3 2.04,-1.62 1.89,-2.36 -0.12,-1.54 z m -66.47,38.84 -1.22,-0.99 -0.73,-0.03 -0.01,-0.46 -0.46,0.78 0.66,1.5 2.29,1.27 1.39,-1.03 -0.34,-0.94 -0.86,-0.21 z m 45.87,-7.49 -0.19,0.6 -0.1,-0.42 -0.52,-0.12 -0.1,-0.32 -0.98,0.03 -0.85,-0.98 -0.89,0.17 -0.91,-0.29 0.42,0.41 -0.5,0.12 0.06,0.31 1.2,1.4 -0.54,1.11 1.17,-0.43 0.51,-0.55 1.46,0.17 0.75,-0.26 0.58,-0.57 z"
       inkscape:connector-curvature="0"
       style="fill:#cccccc;fill-opacity:1;stroke:#ffffff;stroke-width:0.5;stroke-opacity:1" />
    <path
       id="MY-13"
       title="Sarawak"
       class="land"
       d="m 437.74,231.08 0.93,0.28 0.85,1.93 -0.18,0.77 -0.28,0.33 -1.29,-0.7 -0.68,0.94 -0.15,0.58 0.62,0.31 0.5,-0.68 -0.06,0.75 0.76,0.12 0.06,0.27 -0.83,0.13 -0.38,-0.42 -1.18,0.48 -0.93,-0.6 -0.35,-1.48 0.55,0.26 0.37,-0.64 -0.36,-0.37 0.88,-0.1 0.31,-0.43 -0.36,-1.21 z m -9.12,-3.05 0.47,0.29 0.43,-0.16 0.09,0.45 -0.35,0.62 0.96,0.96 -0.77,0.76 -0.99,0.38 -0.63,-1.79 -1.23,-0.23 -0.26,-0.5 0.31,-0.39 z m 9.66,-1.56 0.91,1.07 -1.1,0.65 -0.33,0.99 0.18,0.36 -0.59,0.27 0.15,0.59 0.48,0.13 -0.88,0.3 -0.83,0.71 0.01,0.68 0.36,0.57 -2.04,0.71 -0.44,-0.59 -0.64,0.12 -0.02,-0.63 -0.77,-0.11 -0.51,-1.5 0.54,-0.28 0.63,-0.34 -0.2,-1.25 0.5,-0.18 0.79,0.15 0.69,0.36 0.62,-1.03 0.11,-0.92 1.07,-0.19 0.34,0.48 0.52,-0.08 0.45,-0.27 -0.25,-0.54 z m -6.71,-2.26 0.43,0.33 -0.33,0.78 0.66,0.8 -0.09,1.6 0.76,0.56 0.26,1.85 -1.08,0.51 -0.47,-1.06 0.18,-1.25 -0.5,-0.5 -0.67,0.01 -0.54,-0.85 0.7,-0.92 0.01,-0.71 z m 41.39,-15.93 0.11,-0.41 0.67,-0.13 -0.07,0.49 0.59,0.33 0.34,0.24 -0.56,0.41 -0.24,-0.41 -0.44,0.01 -0.09,0.82 -1.25,0.66 -0.32,1.42 -1.39,-0.85 -2.01,-0.51 -1.44,0.12 -1.15,0.49 -1.01,-0.88 0.32,-1.11 1.53,-1.03 0.57,-0.97 1.13,1.74 0.77,0.17 0.67,-0.34 0.3,-0.93 -0.26,-2.5 0.91,0.24 1.45,1 0.23,0.89 v 0.83 l 0.35,0.34 z m -4.57,-9.4 -0.2,1.16 0.42,-0.45 2.99,1.32 -1.05,1.24 0.69,0.85 -0.71,0.3 -1.07,1.85 0.24,3.04 -0.96,0.46 -0.3,-0.09 -0.32,-1.05 -0.9,-0.97 -0.48,-0.06 -0.69,0.62 -0.14,-0.38 0.13,-1.97 -0.3,-3.01 0.56,-1.24 0.77,-0.86 z m 5.83,-11.23 -0.41,-1.43 0.81,-0.55 z m -2.4,-3.42 2.12,3.1 -0.27,1.66 0.17,2.31 -0.26,5.51 0.74,1.17 0.34,2.17 0.71,0.94 -0.29,0.56 -1.42,-0.1 -0.67,0.98 -0.73,-0.89 -0.19,-1.39 -1.55,-1.06 -0.07,-1.4 0.41,-1.89 -1.19,-5.3 -0.02,-2.5 0.33,-1.59 1,-1.83 z m 22.24,-2.82 4.62,-0.68 6.37,-1.42 4.76,-1.41 9.26,-1.99 2.45,-0.42 0.66,0.21 1.56,-0.91 2.35,-0.74 9.83,-2.27 3.36,-1.86 0.82,-0.69 1.92,-2.67 -0.75,-0.93 3.98,-3.19 1.62,-2.79 3.78,-3.24 0.6,-0.95 -0.38,-0.65 3.18,-3.4 1.72,-2.89 0.43,-0.95 -0.15,-0.81 0.48,-0.77 4.81,-3.17 5.68,-4.82 2.74,-2.97 2.27,-3.74 4.32,-5.23 1.57,-2.82 0.29,-1.09 -0.4,-0.55 0.92,-1.14 0.53,-2.08 -0.1,-2.32 -1.08,-3.21 0.62,-0.53 5.85,0.29 v 0 l 1.79,0.62 0.95,1.23 0.48,-0.16 1.19,0.63 1.09,1.41 1.79,3.1 -0.03,1.83 0.85,0.78 -0.5,1.76 0.05,1.31 1.3,0.47 1.13,-0.53 1.4,0.44 0.77,-0.76 h 0.65 l 0.49,2.08 1.63,3.04 1.43,0.16 0.63,0.65 1.18,2.21 0.97,0.61 1.32,0.22 0.13,0.41 -0.74,1.03 0.66,0.16 1.64,-0.51 1.85,-1.09 2.29,-2.85 1.55,-1.28 0.08,-0.27 -0.88,0.11 0.06,-0.67 2.02,-2.68 0.43,-1.26 -1.42,0.88 -0.01,-0.88 1.36,-1.54 1.05,-2.1 0.06,-1.97 -1.58,-0.46 -0.72,-0.78 -0.57,-7.78 -0.16,-1.01 -0.88,-1.46 0.14,-1.51 0.59,-0.36 1.15,-0.11 0.44,-0.37 0.61,-1.54 0.52,-0.34 4,-0.92 1.24,-2.34 v 0 l 0.78,-0.39 0.29,0.98 -1.1,1.3 -0.39,2.51 0.43,0.12 0.21,-2.42 0.59,-0.75 v 1.34 l 1.09,1.24 v 0 l -0.54,1.4 0.39,1.27 -0.16,1.11 0.75,3.38 0.52,0.85 1.32,4.26 -0.16,1.3 0.29,2.45 0.47,0.33 1.32,-0.16 2.1,0.76 1.57,-0.12 0.31,0.23 0.21,1.07 1.25,-0.16 0.81,0.49 0.58,0.94 0.47,0.12 0.85,-0.42 0.58,-0.56 0.04,-0.72 -1,-1.5 -2.13,-1.84 -0.4,-1 0.2,-0.69 -0.51,-1.88 -0.02,-1.38 0.63,-0.9 0.18,-1.25 -0.18,-1.15 -1.08,-0.89 0.32,-1 -0.57,-0.82 0.12,-1.44 -0.97,-1.26 0.25,-1.38 -2.36,-1.99 0.08,-0.45 -0.53,-0.15 -0.73,-1.42 v 0 l -0.48,-0.37 2.06,-0.72 0.22,-0.41 -0.11,-0.96 1.23,-0.26 0.42,0.32 0.49,1.4 0.5,0.38 1.34,0.28 1,0.66 1.62,-0.16 1.24,-0.82 -0.15,-0.9 0.47,-0.12 1.14,-1.17 0.87,-0.16 v 0 l 1.95,0.73 2.4,-1.15 2.04,-0.25 0.44,0.11 0.41,0.64 0.08,1.39 1.22,4.41 -0.04,1.95 -0.84,0.94 -1.38,3.32 -1.67,1.71 -0.35,1.32 0.88,1.45 -0.03,1.05 0.42,0.81 -0.03,0.64 -0.65,0.77 1.29,2.59 -0.25,2.1 0.86,0.74 1.53,0.4 0.82,1.18 0.02,0.81 -1,1.87 -0.38,2.49 0.56,1.99 0.99,0.55 v 0 l 0.24,0.06 -0.32,2.09 -1.05,3.41 -0.66,1.08 -0.67,0.49 -1.71,0.28 -0.42,0.32 0.7,1.11 1.26,0.78 0.38,0.66 -1.53,4.61 -0.37,3.74 0.37,2.37 0.88,1.11 0.31,2.63 1.48,2.47 -0.99,1.39 -0.7,-1.43 -0.98,-0.12 -1.43,2.83 -0.7,2.52 0.09,2.71 -0.45,1.51 1.72,1.29 -0.04,0.68 -1.88,1.78 -0.05,2.24 -0.33,0.6 -1.06,0.71 -1.99,0.14 -1.39,1.64 -3,0.06 -0.31,-1.26 -1.16,-1.24 -0.55,1.75 -0.97,1.05 -1.45,0.58 -0.7,0.84 -1.07,0.46 -0.35,2.21 -2.24,2.07 -0.08,0.2 0.57,0.34 0.87,-0.01 0.36,0.56 -0.46,0.83 0.04,1 -1.45,1.2 0.54,2.42 -0.26,1 -0.69,0.54 0.02,0.46 0.78,0.97 0.65,-0.05 1.22,-0.74 0.45,0.1 1.54,1.79 0.11,0.85 0.99,0.4 0.04,1.25 -1.75,1.11 -1.32,-0.18 -1.18,0.25 -1.37,1.25 -0.39,1.35 -1.61,-0.03 -1.22,1.45 -1.11,0.69 -0.89,-0.68 -0.49,0.12 -0.64,1.73 0.66,0.83 -0.03,0.39 -1.01,0.49 -0.67,0.76 -4.07,0.38 -0.55,0.31 -0.68,2.87 -0.01,1.82 0.29,0.54 0.89,0.39 0.07,0.59 -0.44,0.56 -0.01,1.22 0.57,1.17 0.41,0.04 1.44,-0.81 1.02,0.49 0.11,0.48 -1.69,1.81 0.06,0.73 1.03,1.13 -0.91,0.82 -1.33,0.06 -1.55,1.81 -1.57,-0.63 -0.98,0.42 0.07,0.96 -1.09,0.85 0.64,1.2 -0.18,0.99 0.32,1.08 -0.36,2.21 -1.11,1.09 -0.85,1.84 -1.93,1.1 -0.39,1.52 0.35,0.94 -0.19,0.89 -1.65,2.41 -1.12,-0.15 -1.72,-1.4 -0.94,-0.06 -2.83,-1.81 -0.33,0.01 -0.66,1.01 -2.81,0.97 -0.82,0.63 -1.91,0.22 -1.4,1.54 -0.4,-0.58 -2.3,-1.68 -1.16,0.34 -1.17,-0.29 -2.41,0.71 -1.62,-0.31 -1.25,0.48 -0.52,0.85 -4.55,1.88 -0.2,0.44 0.4,1.07 -0.85,1.37 -4.13,1.56 -1.72,1.68 -1.32,0.06 -0.31,-0.23 v -0.88 l -0.99,-0.53 -0.71,-1.7 -1.66,-0.82 -1.81,0.33 -1.37,0.51 -0.71,0.65 -0.72,0.08 -1.24,-1.27 -1.07,-0.45 -0.67,-1.34 -3.16,-1.1 -2.11,-0.16 -1.92,0.47 -1.49,-0.5 -0.91,-1.49 -0.62,-0.48 -3.33,1.3 -1.67,0.01 -0.2,-0.97 0.38,-0.67 2.14,-0.95 0.47,-1.57 0.86,-0.91 -0.33,-0.84 -2.46,-0.96 -0.72,0.54 -0.58,0.02 -1.71,-0.18 -0.66,-0.48 -0.97,-0.15 -1.51,1.83 -1.77,-0.1 -0.31,-0.46 -0.98,-0.41 -0.69,0.28 -0.85,-0.3 -2.17,0.4 -0.98,-0.59 -0.81,0.24 -5.51,-0.67 -1.87,1.03 -0.72,1.19 -3.21,0.9 -1.27,-0.09 -1.76,1.4 -2.22,0.55 -0.63,0.42 -0.39,1.39 1.12,0.97 -0.73,2.01 -1.28,1.44 -0.18,1.69 -0.47,0.63 0.22,0.77 -0.15,0.73 -0.66,0.93 0.32,0.8 -0.16,0.51 -0.57,0.28 -1.73,-0.01 -5.8,0.87 -0.73,1.19 -1.51,1.03 -0.51,0.85 -0.32,1.58 -1.52,0.02 -1.27,-0.55 -0.56,0.67 -0.74,-0.78 -1.69,0.37 -0.36,-0.55 -2.03,-0.83 -0.82,0.34 -2.26,1.78 -1.19,0.05 0.06,1.2 -0.29,0.37 -0.88,-0.33 -0.7,-1.83 -1.38,-1.14 -0.66,-0.03 -1.26,0.84 -1.62,0.04 -1.69,-0.95 -3.99,-1.19 -0.71,-0.62 -1.6,0.73 -2.23,0.5 -3.22,0.24 -1.4,0.55 -4.67,0.23 -0.7,0.71 -0.08,0.64 -1.57,1.76 -1.97,0.15 -0.09,0.42 0.37,0.68 -0.26,0.56 -0.67,-0.16 -0.42,-0.72 -0.39,-0.14 -0.45,1.06 -1.42,-0.13 -1.19,0.87 -1.02,0.25 -0.57,-0.23 -0.23,-0.79 -0.4,-0.16 -0.55,1.44 -2.08,0.7 -3.34,-0.93 -1.75,-1.31 -0.4,-0.57 0.17,-0.71 -1.24,-0.31 -0.09,-1.06 -0.48,-0.66 -1.27,0.32 -1.04,-0.51 -2.46,0.03 0.1,-1.99 -0.67,-0.22 -0.69,-1.21 -0.16,-1.16 -1.3,-0.27 -0.07,-1.35 -0.57,-0.91 -1.72,-0.95 -2.14,0.04 -0.55,-0.63 -1.67,0.34 0.04,-0.42 0.92,-0.97 -0.15,-0.79 -2.32,-1.43 -1.02,-0.16 -0.76,-2.55 -0.03,-1.28 -1.42,-1.1 -3.77,-0.1 -0.11,-1.33 0.35,-1 -0.98,0.64 -0.46,-0.12 -0.79,-1.34 -3.56,-3.57 -0.28,-0.64 -0.81,-0.29 -0.56,-0.8 0.5,-3.89 0.66,-1.96 -0.36,-0.39 -2.9,-0.78 -0.74,-1.47 -1.13,-0.49 -0.62,-2.5 0.53,-0.33 0.76,0.04 0.75,-1.62 1.21,-0.73 0.57,-0.9 0.56,-1.69 0.42,0.53 -0.41,1.21 0.8,0.92 -0.65,0.11 -0.03,2.68 1.39,1.57 -0.11,0.63 1.7,0.99 2.04,0.71 0.51,0.41 2.25,0.83 0.36,0.65 1.23,0.72 -0.42,0.9 2.15,1.21 -0.84,-0.15 -0.37,0.29 1.76,0.44 0.84,-0.61 0.67,0.31 0.05,0.64 1.2,-0.81 4.62,-0.01 3.09,-0.32 0.09,0.94 1.76,0.64 -0.01,0.58 0.44,0.39 -0.1,0.42 0.34,0.58 1.88,-1.37 -0.5,-1.41 1.41,-1.05 0.52,0.41 -0.24,1.3 1.11,2.66 0.82,0.18 v 0.58 l 0.73,0.08 0.07,0.57 -0.43,0.23 0.23,0.34 0.51,-0.14 0.46,-0.8 0.87,0.29 -0.25,0.53 -0.35,-0.32 -0.25,0.19 0.07,1.03 0.23,0.47 1.01,0.64 1.18,-0.42 0.43,0.42 0.91,-0.2 -0.11,-0.38 -0.64,-0.13 0.17,-0.91 -0.52,0.17 -0.29,0.67 -0.4,-0.29 0.04,-0.36 0.66,-0.89 0.95,0.65 0.53,0.01 0.53,-1.47 1.01,-0.47 1.78,0.01 4.88,2.03 0.48,1.28 -0.17,1.3 -3.56,1.77 -0.35,1.08 0.7,0.72 1.83,-0.98 1.76,0.83 -0.8,-0.71 -0.93,-0.36 -1.83,0.98 -0.39,-0.84 4.12,-2.14 0.43,-0.87 0.1,-2.58 0.83,-0.75 0.61,0.01 2.94,1.61 2.65,0.61 1.55,0.95 1.12,0.99 1.19,1.93 1.3,0.97 2.24,0.5 1.91,1.17 0.98,-0.41 0.97,-0.86 1.36,-0.15 0.49,0.39 0.65,1.73 1.63,0.64 0.12,-0.39 -0.65,-1 -0.03,-1.13 -0.48,-0.44 -2.21,-0.67 -1.53,0.36 -1.19,0.82 -1.6,-1.24 -2.76,-1.15 -1.16,-2.46 -0.93,-0.61 h -0.75 l 0.21,-0.7 -0.21,-1.26 0.92,-3.18 0.93,-1.08 1.43,0.11 1.02,-0.38 1.74,0.38 0.3,1.43 0.72,0.49 1.55,-0.5 1.14,0.93 1.91,-0.18 -0.82,-0.4 -1.06,0.06 -1.07,-0.91 -1.74,0.42 -0.46,-1.96 -1.28,-0.42 -0.56,-0.76 -0.05,-0.53 -0.91,-0.94 0.68,-1.03 0.99,-0.29 0.34,-0.48 0.18,-0.63 -0.18,-0.12 -0.73,1.06 -0.5,0.05 -0.1,-1.12 2.64,-5.36 0.13,-1.44 1.55,-4.25 0.87,0.84 0.86,0.34 1.22,-0.25 0.81,0.62 0.58,-0.09 1.26,-1.38 0.34,-2.45 0.98,0.48 1.27,-0.43 1,0.59 0.18,-0.23 -1.18,-0.66 -1.28,0.43 -0.4,-0.53 0.15,-0.88 1.12,0.69 0.29,-0.56 -0.17,-0.48 -0.92,-0.56 0.01,-0.46 -0.79,0.13 -0.39,0.39 -0.35,-1.83 -1.78,-1.82 0.94,-1.45 -0.07,-0.45 -0.61,-0.5 0.79,-0.52 1.04,1.32 0.85,-0.11 0.53,-0.99 1.02,0.2 1.06,-0.71 2.16,1.36 -0.54,-0.95 -2.61,-1.93 -0.1,-1.64 -0.86,-1.24 0.86,-0.16 2.22,0.74 1.32,-0.74 0.35,1.34 1.4,0.94 0.57,-0.19 0.37,-1 0.74,0.78 0.49,0.18 0.22,-0.35 -0.73,-0.16 -0.3,-0.67 -0.48,-0.1 -0.86,1.24 -1.14,-0.98 -0.3,-1.31 -0.62,-0.1 -1.17,0.55 -2.64,-1.76 -0.01,-1.2 0.87,-2.77 0.44,-2.72 1.77,-0.84 0.65,-1.05 4.34,-1.98 1.49,-2.22 h 0.57 l 0.35,0.78 3.33,1.35 0.14,-0.25 -2.67,-1.36 5.63,-1.33 z"
       inkscape:connector-curvature="0"
       style="fill:#cccccc;fill-opacity:1;stroke:#ffffff;stroke-width:0.5;stroke-opacity:1" />
    <path
       id="MY-14"
       title="Kuala Lumpur"
       class="land"
       d="m 84.39,174.83 -1.19,0.31 -2,-0.54 -0.21,-1.14 -0.22,-0.42 -0.96,-0.86 -0.64,-1.17 v -0.96 l 0.85,-1.06 0.42,-1.12 0.11,-0.23 0.05,-0.12 0.12,-0.07 0.14,-0.03 0.25,0.03 0.21,0.1 0.13,0.09 0.17,0.07 0.21,0.04 0.12,-0.02 0.02,-0.15 0.05,-0.08 0.08,-0.08 0.1,-0.07 0.17,-0.05 0.16,0.06 0.44,0.25 0.28,0.13 0.19,-0.03 0.1,-0.04 0.34,-0.27 0.14,-0.21 0.07,-0.08 0.07,-0.05 0.16,-0.07 0.14,-0.05 0.08,-0.03 0.11,0.03 0.07,0.13 -0.03,0.08 -0.09,0.07 -0.03,0.09 -0.06,0.09 -0.07,0.16 0.08,0.13 0.19,0.15 0.17,0.16 0.21,0.13 0.1,0.13 0.19,0.48 0.03,0.24 -0.06,0.14 -0.16,0.03 -0.26,0.07 -0.11,0.07 -0.01,0.25 0.04,0.21 0.05,0.26 -0.08,0.38 -0.13,0.22 -0.08,0.14 0.01,0.39 0.06,0.33 0.12,0.26 0.16,0.15 0.18,0.17 0.13,0.25 -0.01,0.24 -0.13,0.24 -0.09,0.35 -0.01,0.16 0.1,0.12 v 0.57 l -0.01,0.18 -0.11,0.08 -0.14,0.04 -0.08,0.01 -0.12,0.05 -0.12,0.07 -0.07,0.08 -0.04,0.07 -0.03,0.15 z"
       inkscape:connector-curvature="0"
       style="fill:#cccccc;fill-opacity:1;stroke:#ffffff;stroke-width:0.5;stroke-opacity:1" />
    <path
       id="MY-15"
       title="Labuan"
       class="land"
       d="m 624.42,86.91 0.43,0.01 0.1,0.29 -0.42,0.13 -0.5,-0.52 z m 8.5,-1.82 -0.07,0.2 -0.79,-0.33 0.38,-0.43 0.4,0.08 z m -3.52,-4.65 0.22,0.24 -0.48,0.65 0.04,0.75 1.3,2.48 -0.57,0.48 -0.82,-0.06 0.09,0.56 0.43,0.19 -0.2,0.58 -0.64,-0.31 -0.4,-0.95 -0.6,-0.23 -0.63,0.25 -0.87,1 -0.57,0.05 0.48,-1.9 0.91,-1.73 1.56,-1.94 z"
       inkscape:connector-curvature="0"
       style="fill:#cccccc;fill-opacity:1;stroke:#ffffff;stroke-width:0.5;stroke-opacity:1" />
    <path
       id="MY-16"
       title="Putrajaya"
       class="land"
       d="m 81.31,181.12 -0.32,-1.17 -0.18,-1.27 0.82,-0.11 1.6,0.21 0.86,1.28 -0.11,1.17 -0.75,0.43 -1.49,0.1 z"
       inkscape:connector-curvature="0"
       style="fill:#cccccc;fill-opacity:1;stroke:#ffffff;stroke-width:0.5;stroke-opacity:1" />
  </g>
</svg>
